<?xml version="1.0" encoding="UTF-8"?>
<svg version="1.1" xmlns="http://www.w3.org/2000/svg" width="570" height="438">
<path d="M0 0 C188.1 0 376.2 0 570 0 C570 144.54 570 289.08 570 438 C381.9 438 193.8 438 0 438 C0 293.46 0 148.92 0 0 Z " fill="#B7D2DE" transform="translate(0,0)"/>
<path d="M0 0 C11.1515644 3.92884297 19.93429711 13.65786868 25.25 23.9375 C34.31801438 43.13750912 34.84459252 66.20934932 27.86328125 86.265625 C22.23200428 100.4059924 14.03501206 113.18091902 3.58984375 124.234375 C1.61415611 126.34415909 -0.27647902 128.47568758 -2.15625 130.66796875 C-6.68218187 135.86474878 -11.5561772 140.70199307 -16.4375 145.5625 C-17.79198242 146.9227832 -17.79198242 146.9227832 -19.17382812 148.31054688 C-33.32566446 162.44188815 -33.32566446 162.44188815 -38 164 C-38 164.66 -38 165.32 -38 166 C-39.69274284 167.56432787 -41.45569852 169.05328572 -43.25 170.5 C-44.22453125 171.2940625 -45.1990625 172.088125 -46.203125 172.90625 C-48.44894762 174.58748034 -50.4465803 175.88135899 -53 177 C-53 177.66 -53 178.32 -53 179 C-54.53588937 180.32778223 -56.13029582 181.58835941 -57.75 182.8125 C-61.43130308 185.5950054 -64.17158589 188.36346757 -67 192 C-68.11473308 193.03455506 -69.2612574 194.03595261 -70.4375 195 C-79.73436812 202.99112822 -88.58200876 211.48015209 -95 222 C-95.68642578 223.10408203 -95.68642578 223.10408203 -96.38671875 224.23046875 C-97.69362987 226.44790053 -98.86474186 228.69033689 -100 231 C-100.39445312 231.76054687 -100.78890625 232.52109375 -101.1953125 233.3046875 C-103.96848098 239.529772 -104.38502868 245.40558509 -104.4375 252.125 C-104.4475708 252.9600708 -104.4576416 253.7951416 -104.46801758 254.65551758 C-104.3858774 260.56669763 -103.16893292 265.51198002 -101 271 C-104.94264882 269.68578373 -107.33956629 268.21086827 -110 265 C-110.30808594 264.22398437 -110.61617188 263.44796875 -110.93359375 262.6484375 C-112.00511454 259.98729796 -113.30921749 257.83485094 -114.875 255.4375 C-123.63704794 241.12686913 -125.71702503 222.33753054 -122.38916016 206.00146484 C-120.71704766 199.82759197 -118.47899251 193.89088283 -116 188 C-115.59297852 187.02546875 -115.59297852 187.02546875 -115.17773438 186.03125 C-113.87940052 182.97161054 -112.50580705 179.96303968 -111 177 C-122.4532083 195.91051948 -129.18995964 214.74965016 -129.3125 237.0625 C-129.31813965 238.05072754 -129.3237793 239.03895508 -129.32958984 240.05712891 C-129.27817824 245.14862061 -128.83554492 249.19540631 -127 254 C-127 255.32 -127 256.64 -127 258 C-138.37011129 258.06954598 -149.74017188 258.12283473 -161.11045265 258.15543652 C-166.3902806 258.17108465 -171.6699629 258.19230755 -176.94970703 258.22631836 C-182.04605921 258.25894192 -187.14227139 258.27685943 -192.23871994 258.28463173 C-194.18196186 258.29016983 -196.12519621 258.30098441 -198.06837845 258.31719017 C-200.79266093 258.33900418 -203.51636673 258.34196525 -206.24072266 258.34057617 C-207.44266266 258.35675491 -207.44266266 258.35675491 -208.66888428 258.3732605 C-214.34645706 258.34198699 -218.58753712 257.2708508 -222.86328125 253.24609375 C-223.58064453 252.35083984 -223.58064453 252.35083984 -224.3125 251.4375 C-224.80363281 250.83808594 -225.29476562 250.23867188 -225.80078125 249.62109375 C-228.62018038 245.80985388 -228.17709167 242.01657419 -228.20874023 237.45458984 C-228.22341591 236.12743454 -228.22341591 236.12743454 -228.23838806 234.77346802 C-228.26837871 231.8359732 -228.28974102 228.89852418 -228.30859375 225.9609375 C-228.31516558 224.95776112 -228.3217374 223.95458473 -228.32850838 222.92100906 C-228.36112264 217.60799825 -228.38556498 212.29500764 -228.4050293 206.98193359 C-228.42282443 202.58775544 -228.4576132 198.19422118 -228.50756836 193.80029297 C-228.56782741 188.49406714 -228.59851363 183.18843724 -228.60820198 177.88188553 C-228.61675059 175.86209816 -228.63555401 173.84232644 -228.6649456 171.82273483 C-228.70396362 168.98838156 -228.70488118 166.15633657 -228.69702148 163.32177734 C-228.7270224 162.07923187 -228.7270224 162.07923187 -228.75762939 160.81158447 C-228.67831745 154.41133709 -226.54924895 150.48132981 -222 146 C-217.23318103 142.67997789 -213.01937342 142.57592644 -207.4152832 142.63110352 C-206.57376205 142.62733704 -205.73224091 142.62357056 -204.86521912 142.61968994 C-203.04502282 142.6132746 -201.22479301 142.61357138 -199.40459633 142.61987495 C-196.51504441 142.62901934 -193.62613677 142.61872141 -190.73661804 142.60325623 C-182.52372199 142.56326036 -174.31087767 142.56194597 -166.09790039 142.56420898 C-161.06579817 142.56426034 -156.03404225 142.54496579 -151.00203514 142.51487541 C-148.1709062 142.50412506 -145.34045994 142.51613822 -142.50935364 142.52870178 C-132.0674673 142.50780015 -122.33900372 142.46732964 -113.9375 135.4375 C-111.91394223 132.96137838 -111.91394223 132.96137838 -110 130 C-109.34 130 -108.68 130 -108 130 C-107.71125 128.906875 -107.4225 127.81375 -107.125 126.6875 C-106 123 -106 123 -104 120 C-103.81726957 117.14739581 -103.75099114 114.39256345 -103.77636719 111.54052734 C-103.77595932 110.67672455 -103.77555145 109.81292175 -103.77513123 108.92294312 C-103.77493357 107.04537948 -103.77897807 105.16781175 -103.78673553 103.29026413 C-103.79695244 100.31337353 -103.79158239 97.33690226 -103.78131104 94.36001587 C-103.75332874 85.89537274 -103.74077312 77.43096257 -103.77001953 68.96630859 C-103.78678958 63.78841873 -103.77436528 58.61127595 -103.74356842 53.43346024 C-103.73747979 51.46481259 -103.74229214 49.49609857 -103.75844574 47.52750778 C-103.9038297 29.02832314 -103.9038297 29.02832314 -99.06793213 22.64004517 C-93.41931589 18.1602145 -88.08719985 16.39925709 -80.85571289 16.5300293 C-79.7005719 16.5267437 -79.7005719 16.5267437 -78.52209473 16.52339172 C-76.00516191 16.52110085 -73.4894307 16.54721008 -70.97265625 16.57421875 C-69.21529003 16.57914706 -67.45791854 16.58244307 -65.70054626 16.58418274 C-62.03318288 16.59179514 -58.36621365 16.61228039 -54.69897461 16.64331055 C-49.98881345 16.68308851 -45.27890693 16.70095496 -40.56859684 16.71061993 C-36.07824864 16.72056387 -31.58796302 16.74045582 -27.09765625 16.76171875 C-25.80770091 16.76681237 -25.80770091 16.76681237 -24.49168587 16.7720089 C-22.07388869 16.783527 -19.65625682 16.80203366 -17.23852539 16.82299805 C-16.51598068 16.82568695 -15.79343597 16.82837585 -15.04899597 16.83114624 C-10.11491465 16.88508535 -10.11491465 16.88508535 -9 18 C-7.9499726 29.85417296 -8.75594951 41.56924697 -12 53 C-12.29003906 54.13050781 -12.58007812 55.26101562 -12.87890625 56.42578125 C-14.60741858 62.69615862 -16.71394567 67.74247215 -20.55078125 73 C-21.92863368 74.90151063 -23.0669755 76.81426529 -24.1875 78.875 C-25.64975921 81.39613657 -26.80851078 83.13723416 -29 85 C-28.67 85.33 -28.34 85.66 -28 86 C-18.17315056 74.90946096 -8.40273176 63.49226175 -2 50 C-1.53464844 49.08089844 -1.06929687 48.16179688 -0.58984375 47.21484375 C2.92874281 39.14855756 3.46637745 31.85417571 3.5 23.125 C3.50620361 22.05507813 3.51240723 20.98515625 3.51879883 19.8828125 C3.41710273 13.53300754 2.49423008 8.82429258 0 3 C0 2.01 0 1.02 0 0 Z " fill="#D04E67" transform="translate(330,12)"/>
<path d="M0 0 C11.49185651 8.96364808 17.74427031 21.68935862 20 36 C21.80166123 54.49534986 18.53195548 70.48239121 9.70703125 86.70703125 C8.38569014 89.2559799 7.47138936 91.20684214 7 94 C12.15039589 87.63774625 14.92312048 80.53247009 18 73 C18.71965942 71.38605347 18.71965942 71.38605347 19.45385742 69.73950195 C24.70406434 57.46385431 25.57294668 45.44850973 25.3125 32.3125 C25.3009626 30.78972593 25.29119125 29.26693745 25.28320312 27.74414062 C25.21275744 19.31852195 25.21275744 19.31852195 24 11 C35.3354989 10.88396974 46.6708557 10.79521524 58.00682831 10.74093914 C63.27104217 10.71488456 68.53484868 10.67956192 73.79882812 10.62280273 C78.88224776 10.56833566 83.96527645 10.53854834 89.04896545 10.52561378 C90.98501232 10.51640028 92.92103864 10.49840825 94.85691833 10.47134972 C97.5763005 10.43486366 100.29408294 10.43006275 103.01367188 10.43237305 C103.80777466 10.41439667 104.60187744 10.39642029 105.42004395 10.37789917 C111.39166315 10.43252057 115.34776237 12.28222656 120 16 C124.72412454 21.20865014 125.16063126 24.5960905 125.20874023 31.45361328 C125.21852402 32.32862991 125.2283078 33.20364655 125.23838806 34.10517883 C125.26837792 37.01020786 125.28974088 39.91519059 125.30859375 42.8203125 C125.31516558 43.81245632 125.3217374 44.80460014 125.32850838 45.82680893 C125.3611224 51.08146488 125.38556472 56.33610043 125.4050293 61.59082031 C125.42282381 65.93649922 125.45761153 70.28152697 125.50756836 74.62695312 C125.56783177 79.87482527 125.59851422 85.12209479 125.60820198 90.37029648 C125.61674991 92.36775595 125.63555166 94.36519962 125.6649456 96.36246109 C125.70396946 99.16568895 125.7048805 101.9665833 125.69702148 104.77001953 C125.7270224 105.99853889 125.7270224 105.99853889 125.75762939 107.25187683 C125.68932635 112.7044469 124.33837786 116.09697995 120.80849648 120.27950096 C115.31479365 125.50589237 109.6098774 126.5905086 102.24829102 126.48242188 C101.4130188 126.48633438 100.57774658 126.49024689 99.71716309 126.49427795 C97.91718355 126.50022128 96.11715558 126.49714056 94.31720161 126.4858551 C91.46153789 126.4684924 88.60687754 126.47615544 85.75120544 126.4901123 C78.66127069 126.51965957 71.57153197 126.50659197 64.48156738 126.49493408 C58.48161767 126.48670779 52.48210887 126.4947583 46.4822216 126.52406311 C43.68086091 126.53111914 40.88029284 126.51452898 38.07899475 126.49694824 C27.35768093 126.49947347 18.75865767 126.88891771 10.5625 134.625 C9.92441406 135.21539062 9.28632813 135.80578125 8.62890625 136.4140625 C2.38385302 142.49437812 0.84395243 150.21115 0.57933998 158.75374985 C0.53722767 162.21537062 0.54084562 165.6745947 0.57527542 169.13628387 C0.60210527 171.97939079 0.6018015 174.82139869 0.59457397 177.66461182 C0.57902095 185.73834072 0.61337105 193.81167136 0.66015625 201.88525391 C0.68705896 206.84651881 0.68484524 211.80712043 0.66569138 216.76840973 C0.66461336 218.64860153 0.67498388 220.52883791 0.69731522 222.4088974 C0.90729178 240.12695484 0.90729178 240.12695484 -4.44839478 245.73638916 C-7.72106341 248.40161579 -9.7075611 250 -14 250 C-14 250.66 -14 251.32 -14 252 C-24.28304538 252.02312376 -34.56608462 252.04091525 -44.84915066 252.05181217 C-49.6234828 252.05704093 -54.39779721 252.06413844 -59.17211914 252.07543945 C-63.77566262 252.0862686 -68.37918899 252.09227689 -72.98274422 252.09487724 C-74.74309623 252.09673144 -76.50344726 252.10035196 -78.26379204 252.10573006 C-80.72072277 252.11294086 -83.17758195 252.11399093 -85.63452148 252.11352539 C-86.36963455 252.11712067 -87.10474762 252.12071594 -87.86213684 252.12442017 C-92.88594784 252.11405216 -92.88594784 252.11405216 -94 251 C-94.25343003 247.25690241 -94.18523237 243.50065517 -94.1875 239.75 C-94.19974609 238.69941406 -94.21199219 237.64882813 -94.22460938 236.56640625 C-94.22750977 235.04080078 -94.22750977 235.04080078 -94.23046875 233.484375 C-94.23457764 232.55334961 -94.23868652 231.62232422 -94.24291992 230.66308594 C-93.97895118 227.76924568 -93.1276019 225.66232544 -92 223 C-91.77261986 221.05102738 -91.54568773 219.10199692 -91.32421875 217.15234375 C-89.25154479 203.39278532 -80.38976308 191.64979615 -72 181 C-70.99609529 179.66960415 -69.99445265 178.33747587 -69 177 C-70.15690269 178.15690269 -71.31276477 179.31485612 -72.46484375 180.4765625 C-73.46232519 181.46642958 -74.47479441 182.44149714 -75.50390625 183.3984375 C-85.67729504 193.05702831 -96.04619772 205.83762452 -101 219 C-101.34160156 219.84820312 -101.68320313 220.69640625 -102.03515625 221.5703125 C-102.54369141 222.83488281 -102.54369141 222.83488281 -103.0625 224.125 C-103.40410156 224.97320312 -103.74570313 225.82140625 -104.09765625 226.6953125 C-105.51694409 230.32033338 -106.12786911 233.09738981 -106.1328125 236.97265625 C-106.13410156 237.95556641 -106.13539063 238.93847656 -106.13671875 239.95117188 C-106.13285156 240.97791016 -106.12898437 242.00464844 -106.125 243.0625 C-106.12886719 244.06216797 -106.13273438 245.06183594 -106.13671875 246.09179688 C-106.12845092 252.45389583 -105.76582288 258.68414182 -105 265 C-106.5 263.625 -106.5 263.625 -108 262 C-108 261.34 -108 260.68 -108 260 C-108.66 260 -109.32 260 -110 260 C-112.1337328 255.30124798 -114.21237962 250.58028144 -116.1875 245.8125 C-116.51105469 245.03519531 -116.83460938 244.25789062 -117.16796875 243.45703125 C-119.15979264 237.57507243 -119.15394369 231.76106322 -119.125 225.625 C-119.12886719 224.81289063 -119.13273438 224.00078125 -119.13671875 223.1640625 C-119.1238553 215.13726826 -118.48567551 208.37354435 -115 201 C-114.54625 199.906875 -114.0925 198.81375 -113.625 197.6875 C-109.69097544 188.62915628 -105.03666595 180.83747249 -99 173 C-98.10861328 171.81664062 -98.10861328 171.81664062 -97.19921875 170.609375 C-86.85397575 157.22923202 -74.5467314 145.45140662 -62.625 133.5 C-62.01354126 132.88586243 -61.40208252 132.27172485 -60.77209473 131.63897705 C-48.9486962 119.77636524 -48.9486962 119.77636524 -42.55664062 114.32958984 C-37.18104723 109.73807767 -32.43024991 104.47395964 -27.83984375 99.11328125 C-26.54684415 97.6281161 -25.22346543 96.16912231 -23.87890625 94.73046875 C-15.22144034 85.44282335 -8.24003537 75.04006258 -2 64 C-1.44892578 63.05833984 -1.44892578 63.05833984 -0.88671875 62.09765625 C7.26635185 47.20807173 8.63229941 29.18750052 4.125 12.9375 C3.19521864 10.0965014 2.24275514 7.46793147 0.8671875 4.81640625 C0 3 0 3 0 0 Z " fill="#4770BB" transform="translate(342,144)"/>
<path d="M0 0 C4.19433604 6.29150406 4.38834869 12.70804062 4.375 20.0625 C4.37338867 20.98699951 4.37177734 21.91149902 4.37011719 22.86401367 C4.17789529 33.70099421 1.54640045 43.6284958 -4 53 C-4.56589844 53.97324219 -5.13179687 54.94648438 -5.71484375 55.94921875 C-12.82165599 67.84081546 -21.08611591 78.40778287 -30.57519531 88.47802734 C-32.51592615 90.55111097 -34.42376752 92.65329697 -36.33325195 94.75512695 C-41.7343602 100.69234382 -47.11519096 106.59200408 -53.265625 111.765625 C-59.47450449 117.17800107 -65.22429378 123.07557691 -71.03637695 128.90600586 C-73.05764268 130.9326298 -75.08419574 132.95385547 -77.11132812 134.97460938 C-85.7190659 143.57638299 -93.85110248 152.2251036 -101.125 162 C-101.62386719 162.66 -102.12273437 163.32 -102.63671875 164 C-107.08745285 169.94980642 -111.47386504 175.96290975 -114 183 C-115.49358923 186.50668775 -116.99588546 189.99129616 -118.625 193.4375 C-123.36549148 205.71968248 -122.62010772 223.84795195 -118 236 C-116.77181042 238.41089065 -115.39380328 240.67699454 -114 243 C-113.25 246.4375 -113.25 246.4375 -113 249 C-112.34 249 -111.68 249 -111 249 C-110.34 250.32 -109.68 251.64 -109 253 C-108.01 252.01 -108.01 252.01 -107 251 C-106.505 254.465 -106.505 254.465 -106 258 C-107.65 257.67 -109.3 257.34 -111 257 C-111 256.34 -111 255.68 -111 255 C-111.56589844 254.76410156 -112.13179687 254.52820313 -112.71484375 254.28515625 C-115.515169 252.71027248 -117.35406021 250.7655169 -119.5625 248.4375 C-122.78326337 244.95762374 -122.78326337 244.95762374 -127 243 C-128.46384083 240.49435309 -129.75433919 238.04823647 -131 235.4375 C-131.34289062 234.74591797 -131.68578125 234.05433594 -132.0390625 233.34179688 C-141.17759265 214.628738 -141.45437138 193.23329154 -134.96704102 173.51660156 C-131.70643622 164.03603316 -128.13586181 157.13586181 -121 150 C-119.96838392 148.01612292 -118.96476382 146.01723344 -118 144 C-117.02149805 142.97895449 -116.02019573 141.9793879 -115 141 C-114.360625 140.030625 -113.72125 139.06125 -113.0625 138.0625 C-111.22459323 135.33348692 -109.35200871 133.27090496 -107 131 C-106.67 130.34 -106.34 129.68 -106 129 C-105.34 129 -104.68 129 -104 129 C-103.773125 128.4225 -103.54625 127.845 -103.3125 127.25 C-102 125 -102 125 -99.375 123 C-98.199375 122.01 -98.199375 122.01 -97 121 C-97 119.68 -97 118.36 -97 117 C-98.03640625 117.02320313 -99.0728125 117.04640625 -100.140625 117.0703125 C-101.51040944 117.08907667 -102.8802017 117.10727618 -104.25 117.125 C-104.93191406 117.14175781 -105.61382812 117.15851563 -106.31640625 117.17578125 C-110.0608235 117.21213482 -112.82352727 117.07944349 -116 115 C-116.35027332 111.8475401 -116.33102406 110.44549412 -114.40795898 107.85742188 C-111.20812213 105.38917096 -109.23536215 105.5162141 -105.22265625 105.53125 C-103.90458984 105.51707031 -102.58652344 105.50289063 -101.22851562 105.48828125 C-99.1439236 105.49073631 -97.05942502 105.50001367 -94.97485352 105.50927734 C-92.95324403 105.51166554 -90.9316504 105.49047588 -88.91015625 105.46875 C-87.70496338 105.47326172 -86.49977051 105.47777344 -85.25805664 105.48242188 C-81.40844408 104.91240806 -79.84999707 103.56096809 -77 101 C-76.34 101 -75.68 101 -75 101 C-75 99.68 -75 98.36 -75 97 C-75.91289795 97.00523682 -76.8257959 97.01047363 -77.76635742 97.01586914 C-81.16756833 97.03295631 -84.56873331 97.0454722 -87.9699707 97.05493164 C-89.43937909 97.05994669 -90.90878252 97.06676033 -92.37817383 97.07543945 C-94.49561795 97.08762928 -96.61299583 97.09325669 -98.73046875 97.09765625 C-100.63928833 97.10551147 -100.63928833 97.10551147 -102.58666992 97.11352539 C-105.5370919 97.01539606 -108.13946675 96.69063835 -111 96 C-112.22159091 89.64772727 -112.22159091 89.64772727 -111.1875 86.625 C-110 85 -110 85 -108 84 C-106.484607 83.89691576 -104.96489386 83.85412628 -103.44604492 83.84228516 C-102.50133835 83.83202301 -101.55663177 83.82176086 -100.58329773 83.81118774 C-99.55936417 83.80388641 -98.5354306 83.79658508 -97.48046875 83.7890625 C-95.32225807 83.76099202 -93.16405504 83.73232754 -91.00585938 83.703125 C-87.59562407 83.66186324 -84.18553145 83.62498479 -80.77514648 83.59863281 C-77.48911817 83.57102513 -74.20374486 83.52514947 -70.91796875 83.4765625 C-69.90010788 83.47330963 -68.88224701 83.47005676 -67.83354187 83.46670532 C-60.91069256 83.39057571 -60.91069256 83.39057571 -55 80 C-54.67 79.34 -54.34 78.68 -54 78 C-55.1960083 78.01571045 -56.3920166 78.0314209 -57.62426758 78.04760742 C-62.05779293 78.10187061 -66.49128888 78.1363369 -70.92504883 78.16479492 C-72.84469538 78.1798898 -74.7643074 78.20036773 -76.68383789 78.22631836 C-79.44165564 78.26267109 -82.1990178 78.27971912 -84.95703125 78.29296875 C-85.81649857 78.30845261 -86.67596588 78.32393646 -87.56147766 78.33988953 C-88.36208115 78.34011612 -89.16268463 78.34034271 -89.98754883 78.34057617 C-91.04344963 78.35056892 -91.04344963 78.35056892 -92.12068176 78.36076355 C-94.61421939 77.8820913 -95.49371568 77.0168288 -97 75 C-97.29357843 70.96329663 -96.9852347 67.9409388 -96 64 C-75.87 63.67 -55.74 63.34 -35 63 C-35 62.34 -35 61.68 -35 61 C-33.5 59.375 -33.5 59.375 -32 58 C-33.74071777 58.01571045 -33.74071777 58.01571045 -35.51660156 58.03173828 C-39.82532665 58.06795983 -44.13403829 58.09090836 -48.44287109 58.10986328 C-50.30715194 58.11991593 -52.17141703 58.13356005 -54.03564453 58.15087891 C-56.71651091 58.17515953 -59.39716866 58.18649047 -62.078125 58.1953125 C-62.91055725 58.20563507 -63.7429895 58.21595764 -64.60064697 58.22659302 C-72.13340556 58.22805093 -72.13340556 58.22805093 -75 56 C-76.4375 52.75 -76.4375 52.75 -77 49 C-75.53515625 45.765625 -75.53515625 45.765625 -74 43 C-73.29256149 42.99857498 -72.58512299 42.99714996 -71.85624695 42.99568176 C-65.19045348 42.97785494 -58.52528261 42.93625229 -51.85980511 42.86790943 C-48.43289622 42.83361199 -45.00643436 42.80852541 -41.5793457 42.80444336 C-37.63973049 42.79934799 -33.70106339 42.75427262 -29.76171875 42.70703125 C-27.9147364 42.71293022 -27.9147364 42.71293022 -26.03044128 42.71894836 C-24.88948502 42.69930527 -23.74852875 42.67966217 -22.57299805 42.65942383 C-21.567061 42.65276199 -20.56112396 42.64610016 -19.52470398 42.63923645 C-16.74762159 42.22248653 -16.74762159 42.22248653 -15.15168762 39.45878601 C-14.58160225 38.24168694 -14.58160225 38.24168694 -14 37 C-15.52923096 37.00785522 -15.52923096 37.00785522 -17.08935547 37.01586914 C-20.86506271 37.03394376 -24.64076612 37.04544105 -28.41650391 37.05493164 C-30.05192711 37.05996621 -31.6873458 37.06679427 -33.32275391 37.07543945 C-35.67090975 37.08754335 -38.01900619 37.093237 -40.3671875 37.09765625 C-41.46726639 37.10539818 -41.46726639 37.10539818 -42.58956909 37.11329651 C-47.77225659 37.11387171 -47.77225659 37.11387171 -50 36 C-50.5546875 34.0390625 -50.5546875 34.0390625 -50.875 31.625 C-50.99617188 30.83351562 -51.11734375 30.04203125 -51.2421875 29.2265625 C-51 27 -51 27 -49.26568604 25.38212585 C-46.72582309 23.83274514 -45.44810445 23.63406807 -42.50683594 23.65942383 C-41.18591949 23.65976372 -41.18591949 23.65976372 -39.83831787 23.66011047 C-38.42561615 23.68333626 -38.42561615 23.68333626 -36.984375 23.70703125 C-36.01340881 23.71127609 -35.04244263 23.71552094 -34.04205322 23.71989441 C-30.94441869 23.73667147 -27.84743751 23.77432228 -24.75 23.8125 C-22.6484469 23.82754808 -20.5468836 23.84123627 -18.4453125 23.85351562 C-13.29662371 23.88657189 -8.14842259 23.93834792 -3 24 C-2.67 21.36 -2.34 18.72 -2 16 C-3.01368652 16.00785522 -3.01368652 16.00785522 -4.04785156 16.01586914 C-7.11522489 16.03668007 -10.18258333 16.04967329 -13.25 16.0625 C-14.84521484 16.07506836 -14.84521484 16.07506836 -16.47265625 16.08789062 C-17.49746094 16.09111328 -18.52226562 16.09433594 -19.578125 16.09765625 C-20.99206543 16.10551147 -20.99206543 16.10551147 -22.43457031 16.11352539 C-24.80952002 16.00842912 -26.76462166 15.80264647 -29 15 C-30.4783226 12.04335481 -30.06032783 9.25770263 -30 6 C-26.56632144 3.90647024 -23.90636407 3.76562388 -19.921875 3.8046875 C-18.18164062 3.81435547 -18.18164062 3.81435547 -16.40625 3.82421875 C-15.1996875 3.84097656 -13.993125 3.85773438 -12.75 3.875 C-10.91695312 3.88853516 -10.91695312 3.88853516 -9.046875 3.90234375 C-6.03105218 3.92590487 -3.01562508 3.95880294 0 4 C0 2.68 0 1.36 0 0 Z " fill="#91E3D2" transform="translate(345,155)"/>
<path d="M0 0 C19.305 0.495 19.305 0.495 39 1 C37.94745726 5.21017098 37.03134997 6.9708902 34 10 C31.36177063 10.63250732 31.36177063 10.63250732 28.3293457 10.64355469 C27.19169266 10.65997009 26.05403961 10.6763855 24.88191223 10.69329834 C23.65888901 10.68622864 22.43586578 10.67915894 21.17578125 10.671875 C19.91863815 10.68462463 18.66149506 10.69737427 17.36625671 10.71051025 C14.03061364 10.7407068 10.69628126 10.75009354 7.3605957 10.74859619 C2.64915378 10.75182551 -2.06212591 10.79448597 -6.77339172 10.83233643 C-9.28180176 10.85018092 -11.7902792 10.86039133 -14.29875183 10.86248779 C-15.42694839 10.86629456 -16.55514496 10.87010132 -17.7175293 10.87402344 C-18.71584274 10.87448669 -19.71415619 10.87494995 -20.74272156 10.87542725 C-22.96891654 10.74656036 -22.96891654 10.74656036 -24 12 C-24 14.64 -24 17.28 -24 20 C-9.15 20.33 5.7 20.66 21 21 C20 26 20 26 17.80574036 28.28411865 C14.57733268 30.25848684 12.86148692 30.48681034 9.1081543 30.45410156 C7.94732834 30.45379944 6.78650238 30.45349731 5.59049988 30.45318604 C4.34762711 30.43254089 3.10475433 30.41189575 1.82421875 30.390625 C0.54392288 30.38496521 -0.73637299 30.37930542 -2.0554657 30.37347412 C-5.44727213 30.35825452 -8.83838548 30.31900634 -12.22991943 30.2746582 C-15.69550197 30.23362496 -19.1611973 30.21544605 -22.62695312 30.1953125 C-29.41826836 30.15122837 -36.20907136 30.08430178 -43 30 C-44.7223033 33.21223234 -45.38789051 35.31504012 -45 39 C-42.65199864 41.34800136 -42.19115983 41.2602854 -39.00927734 41.31884766 C-38.18857758 41.33871735 -37.36787781 41.35858704 -36.52230835 41.37905884 C-35.63580597 41.39061005 -34.74930359 41.40216125 -33.8359375 41.4140625 C-32.92872955 41.43342865 -32.02152161 41.4527948 -31.08682251 41.4727478 C-28.18297796 41.53263216 -25.27909396 41.57896416 -22.375 41.625 C-20.40883667 41.66317165 -18.4426902 41.70222289 -16.4765625 41.7421875 C-11.6511783 41.83834091 -6.82571582 41.922339 -2 42 C-2.57582284 44.80538864 -2.97252551 45.967726 -4.88671875 48.21630859 C-9.47152199 50.84307871 -13.6140573 50.56507133 -18.8125 50.5390625 C-19.85897705 50.55085541 -20.9054541 50.56264832 -21.98364258 50.57479858 C-25.32257995 50.61005897 -28.66089167 50.61922799 -32 50.625 C-35.33892022 50.64135311 -38.67756121 50.66341978 -42.01635742 50.69662476 C-44.09196791 50.71621993 -46.16770623 50.72559341 -48.2434082 50.72354126 C-49.66012817 50.73397964 -49.66012817 50.73397964 -51.10546875 50.74462891 C-51.93199951 50.74588776 -52.75853027 50.74714661 -53.61010742 50.7484436 C-56.34798233 51.03662808 -58.49807684 51.87789985 -61 53 C-60.67 52.01 -60.34 51.02 -60 50 C-57.61172795 48.80586398 -56.11207592 48.86306984 -53.44604492 48.84228516 C-52.50133835 48.83202301 -51.55663177 48.82176086 -50.58329773 48.81118774 C-49.55936417 48.80388641 -48.5354306 48.79658508 -47.48046875 48.7890625 C-45.32225807 48.76099202 -43.16405504 48.73232754 -41.00585938 48.703125 C-37.59562407 48.66186324 -34.18553145 48.62498479 -30.77514648 48.59863281 C-27.48911817 48.57102513 -24.20374486 48.52514947 -20.91796875 48.4765625 C-19.90010788 48.47330963 -18.88224701 48.47005676 -17.83354187 48.46670532 C-10.91069256 48.39057571 -10.91069256 48.39057571 -5 45 C-4.505 44.01 -4.505 44.01 -4 43 C-5.79401245 43.02356567 -5.79401245 43.02356567 -7.62426758 43.04760742 C-12.05779293 43.10187061 -16.49128888 43.1363369 -20.92504883 43.16479492 C-22.84469538 43.1798898 -24.7643074 43.20036773 -26.68383789 43.22631836 C-29.44165564 43.26267109 -32.1990178 43.27971912 -34.95703125 43.29296875 C-35.81649857 43.30845261 -36.67596588 43.32393646 -37.56147766 43.33988953 C-38.36208115 43.34011612 -39.16268463 43.34034271 -39.98754883 43.34057617 C-40.6914827 43.34723801 -41.39541656 43.35389984 -42.12068176 43.36076355 C-44.61421939 42.8820913 -45.49371568 42.0168288 -47 40 C-47.29357843 35.96329663 -46.9852347 32.9409388 -46 29 C-25.87 28.67 -5.74 28.34 15 28 C15 27.34 15 26.68 15 26 C16.5 24.375 16.5 24.375 18 23 C16.25928223 23.01571045 16.25928223 23.01571045 14.48339844 23.03173828 C10.17467335 23.06795983 5.86596171 23.09090836 1.55712891 23.10986328 C-0.30715194 23.11991593 -2.17141703 23.13356005 -4.03564453 23.15087891 C-6.71651091 23.17515953 -9.39716866 23.18649047 -12.078125 23.1953125 C-12.91055725 23.20563507 -13.7429895 23.21595764 -14.60064697 23.22659302 C-22.13340556 23.22805093 -22.13340556 23.22805093 -25 21 C-26.4375 17.75 -26.4375 17.75 -27 14 C-25.53515625 10.765625 -25.53515625 10.765625 -24 8 C-22.93884224 7.99786247 -22.93884224 7.99786247 -21.85624695 7.99568176 C-15.19045348 7.97785494 -8.52528261 7.93625229 -1.85980511 7.86790943 C1.56710378 7.83361199 4.99356564 7.80852541 8.4206543 7.80444336 C12.36026951 7.79934799 16.29893661 7.75427262 20.23828125 7.70703125 C22.0852636 7.71293022 22.0852636 7.71293022 23.96955872 7.71894836 C25.11051498 7.69930527 26.25147125 7.67966217 27.42700195 7.65942383 C28.432939 7.65276199 29.43887604 7.64610016 30.47529602 7.63923645 C33.25237841 7.22248653 33.25237841 7.22248653 34.84831238 4.45878601 C35.41839775 3.24168694 35.41839775 3.24168694 36 2 C34.47076904 2.01571045 34.47076904 2.01571045 32.91064453 2.03173828 C29.13496398 2.06788727 25.35929879 2.09088177 21.58349609 2.10986328 C19.94805328 2.11993254 18.31262851 2.13358881 16.67724609 2.15087891 C14.3290563 2.17508705 11.98110412 2.18647357 9.6328125 2.1953125 C8.89942657 2.20563507 8.16604065 2.21595764 7.41043091 2.22659302 C5.60537303 2.22699368 3.8009217 2.12212755 2 2 C1.34 1.34 0.68 0.68 0 0 Z " fill="#A4DBD8" transform="translate(295,190)"/>
<path d="M0 0 C11.22 0.33 22.44 0.66 34 1 C34 5 34 5 31.453125 7.7109375 C25.62506485 11.54642321 18.46548419 10.67253764 11.75 10.625 C9.03566926 10.61992885 6.32382772 10.63739793 3.609375 10.6640625 C2.41280273 10.65842285 1.21623047 10.6527832 -0.01660156 10.64697266 C-2.97829124 10.75540135 -2.97829124 10.75540135 -4.90136719 12.35302734 C-6.41125343 14.61651459 -6.21554658 16.3415922 -6 19 C-2.43913342 20.18695553 0.97331024 20.35095418 4.6875 20.5625 C5.38939453 20.60568359 6.09128906 20.64886719 6.81445312 20.69335938 C8.54275206 20.7991736 10.2713511 20.90006581 12 21 C12.33 22.32 12.66 23.64 13 25 C12.50628906 25.40992188 12.01257813 25.81984375 11.50390625 26.2421875 C10.86324219 26.78101563 10.22257812 27.31984375 9.5625 27.875 C8.92441406 28.40867187 8.28632813 28.94234375 7.62890625 29.4921875 C5.89194996 30.9222757 5.89194996 30.9222757 5 33 C4.34 33 3.68 33 3 33 C2.773125 33.721875 2.54625 34.44375 2.3125 35.1875 C0.74378003 38.5490428 -1.35641222 40.42088997 -4 43 C-5.02304948 44.65261839 -6.02616054 46.31791365 -7 48 C-7.7115625 48.680625 -7.7115625 48.680625 -8.4375 49.375 C-10.04418587 51.0459533 -10.95118443 52.59993607 -12.0625 54.625 C-14 58 -14 58 -16 59 C-15.44401164 54.77296518 -14.02497374 52.14315441 -11.5625 48.6875 C-10.94503906 47.80449219 -10.32757813 46.92148437 -9.69140625 46.01171875 C-9.13324219 45.34785156 -8.57507813 44.68398438 -8 44 C-7.34 44 -6.68 44 -6 44 C-5.80535156 43.32324219 -5.61070312 42.64648438 -5.41015625 41.94921875 C-3.45555112 37.86133268 -0.57217231 35.04165114 2.5625 31.8125 C3.75321665 30.5708436 4.94210968 29.32743506 6.12890625 28.08203125 C6.65556885 27.53780518 7.18223145 26.9935791 7.72485352 26.43286133 C9.10478928 25.00753377 9.10478928 25.00753377 10 23 C9.13117188 23.04640625 8.26234375 23.0928125 7.3671875 23.140625 C-3.23573114 23.47270746 -3.23573114 23.47270746 -6.8125 21.4375 C-9 19 -9 19 -9.75 15.5 C-9 12 -9 12 -6.39111328 9.81054688 C-2.56511257 7.76780956 -0.29813705 7.51506005 4.0078125 7.53125 C5.32394531 7.51707031 6.64007813 7.50289063 7.99609375 7.48828125 C9.3724004 7.48991698 10.74870613 7.49384571 12.125 7.5 C14.83735873 7.51206622 17.54509637 7.49803349 20.2578125 7.46875 C21.4555127 7.47326172 22.65321289 7.47777344 23.88720703 7.48242188 C27.56094197 6.91306499 28.71393996 5.85386277 31 3 C30.16750732 3.00523682 29.33501465 3.01047363 28.47729492 3.01586914 C25.38550065 3.03292225 22.29373036 3.04545565 19.2019043 3.05493164 C17.20685232 3.06242729 15.21182214 3.07513345 13.21679688 3.08789062 C11.96318359 3.09111328 10.70957031 3.09433594 9.41796875 3.09765625 C8.26063232 3.10289307 7.1032959 3.10812988 5.91088867 3.11352539 C3 3 3 3 0 2 C0 1.34 0 0.68 0 0 Z " fill="#A5DBD9" transform="translate(236,251)"/>
<path d="M0 0 C0.33 1.65 0.66 3.3 1 5 C1.66 5 2.32 5 3 5 C3 5.66 3 6.32 3 7 C13.23 7.33 23.46 7.66 34 8 C32 12 32 12 30 13 C27.80809867 13.1191391 25.61287606 13.17919688 23.41796875 13.2109375 C22.08006608 13.23901501 20.74217562 13.26767953 19.40429688 13.296875 C17.29777485 13.33805918 15.19147864 13.37495011 13.0847168 13.40136719 C11.04948932 13.42909313 9.01529417 13.47496876 6.98046875 13.5234375 C5.76254639 13.54325684 4.54462402 13.56307617 3.28979492 13.58349609 C-0.27854346 14.03526495 -2.20561904 14.75249304 -5 17 C-5.89592083 20.59919423 -5.89592083 20.59919423 -6 24 C-6.33 24 -6.66 24 -7 24 C-7.62591769 7.70295793 -7.62591769 7.70295793 -4 1 C-2 0 -2 0 0 0 Z " fill="#B6D4DE" transform="translate(233,246)"/>
<path d="M0 0 C0.33 0.66 0.66 1.32 1 2 C-0.01797372 4.36828591 -1.09177751 6.63913901 -2.25 8.9375 C-4.91952721 14.41335206 -7.01107842 19.67189495 -8.39453125 25.6328125 C-9 28 -9 28 -10.02124023 30.31347656 C-11.06623612 33.18180649 -11.25808029 35.31050536 -11.265625 38.3515625 C-11.26949219 39.87716797 -11.26949219 39.87716797 -11.2734375 41.43359375 C-11.26570312 42.48675781 -11.25796875 43.53992188 -11.25 44.625 C-11.25773438 45.65496094 -11.26546875 46.68492187 -11.2734375 47.74609375 C-11.25595093 54.69700439 -10.47672475 61.21009361 -9 68 C-11.90775401 65.58894418 -12.47759527 63.8188943 -12.94921875 60.11328125 C-13.07490234 59.17548828 -13.20058594 58.23769531 -13.33007812 57.27148438 C-13.44802734 56.29501953 -13.56597656 55.31855469 -13.6875 54.3125 C-13.81705078 53.32443359 -13.94660156 52.33636719 -14.08007812 51.31835938 C-14.39810731 48.88013563 -14.70426393 46.44101119 -15 44 C-16.17942085 47.53826255 -16.11289189 50.34148726 -16.09765625 54.07421875 C-16.0962413 54.7580513 -16.09482635 55.44188385 -16.09336853 56.1464386 C-16.08777876 58.32683722 -16.07522822 60.50713251 -16.0625 62.6875 C-16.05748367 64.16731622 -16.052921 65.64713406 -16.04882812 67.12695312 C-16.03781271 70.75133557 -16.02055512 74.3756577 -16 78 C-20.86491353 73.13508647 -19.2489769 64.46243162 -19.25097656 58.06152344 C-19.12310782 45.65050576 -16.69585951 34.5048558 -12 23 C-11.6184375 22.01257813 -11.236875 21.02515625 -10.84375 20.0078125 C-4.81170886 4.81170886 -4.81170886 4.81170886 0 0 Z " fill="#C5B0C1" transform="translate(219,188)"/>
<path d="M0 0 C0.33 0 0.66 0 1 0 C1.029729 0.90709717 1.029729 0.90709717 1.06005859 1.83251953 C1.15586299 4.59708509 1.26531555 7.36095174 1.375 10.125 C1.4059375 11.07632813 1.436875 12.02765625 1.46875 13.0078125 C1.67958348 18.0678159 2.21149758 22.21611954 4 27 C4 28.32 4 29.64 4 31 C-7.37011129 31.06954598 -18.74017188 31.12283473 -30.11045265 31.15543652 C-35.3902806 31.17108465 -40.6699629 31.19230755 -45.94970703 31.22631836 C-51.04605921 31.25894192 -56.14227139 31.27685943 -61.23871994 31.28463173 C-63.18196186 31.29016983 -65.12519621 31.30098441 -67.06837845 31.31719017 C-69.79266093 31.33900418 -72.51636673 31.34196525 -75.24072266 31.34057617 C-76.44266266 31.35675491 -76.44266266 31.35675491 -77.66888428 31.3732605 C-82.52746936 31.34649819 -85.73141022 30.57366246 -90 28 C-88 27 -88 27 -85.89814758 27.42466736 C-82.14039935 28.17064566 -78.44500283 28.17705481 -74.62963867 28.20532227 C-73.79985504 28.21522186 -72.97007141 28.22512146 -72.11514282 28.23532104 C-69.38278011 28.26681279 -66.65040004 28.29164457 -63.91796875 28.31640625 C-62.01938942 28.33698643 -60.12081457 28.35798318 -58.22224426 28.37937927 C-53.23283518 28.43449007 -48.2433855 28.48394771 -43.25390625 28.53222656 C-38.15946859 28.58252197 -33.06508966 28.63816602 -27.97070312 28.69335938 C-17.98051896 28.80080646 -7.99028373 28.90228116 2 29 C1.52433594 27.60974609 1.52433594 27.60974609 1.0390625 26.19140625 C-1.50672656 18.372197 -2.63518427 7.90555281 0 0 Z " fill="#C05B73" transform="translate(199,239)"/>
<path d="M0 0 C-1.08231478 2.52540116 -2.06855624 4.06647878 -4.0625 6 C-7.92194184 9.98393997 -7.14825392 15.15910663 -7.14526367 20.42114258 C-7.14862228 21.26879684 -7.1519809 22.11645111 -7.15544128 22.98979187 C-7.16493811 25.79138659 -7.16689385 28.59292144 -7.16796875 31.39453125 C-7.17118253 33.3450269 -7.17454669 35.29552231 -7.17805481 37.24601746 C-7.18404313 41.33564818 -7.18589504 45.42525778 -7.18530273 49.51489258 C-7.1852012 54.74698555 -7.19884562 59.97894254 -7.21607494 65.2110033 C-7.22721217 69.24054075 -7.2292214 73.27004552 -7.22869301 77.29959679 C-7.22987082 79.2280391 -7.23428144 81.15648232 -7.24202538 83.08490944 C-7.25185872 85.78692675 -7.24893388 88.48865147 -7.24291992 91.19067383 C-7.24853943 91.98208771 -7.25415894 92.77350159 -7.25994873 93.58889771 C-7.23268776 98.42619801 -6.53380544 102.40642606 -5 107 C-9.94706518 102.21251756 -9.94706518 102.21251756 -10.16062927 97.32064819 C-10.18192001 95.6986892 -10.19748727 94.07664954 -10.20874023 92.45458984 C-10.21852402 91.56981964 -10.2283078 90.68504944 -10.23838806 89.77346802 C-10.26837871 86.8359732 -10.28974102 83.89852418 -10.30859375 80.9609375 C-10.31516558 79.95776112 -10.3217374 78.95458473 -10.32850838 77.92100906 C-10.36112264 72.60799825 -10.38556498 67.29500764 -10.4050293 61.98193359 C-10.42282443 57.58775544 -10.4576132 53.19422118 -10.50756836 48.80029297 C-10.56782741 43.49406714 -10.59851363 38.18843724 -10.60820198 32.88188553 C-10.61675059 30.86209816 -10.63555401 28.84232644 -10.6649456 26.82273483 C-10.70396362 23.98838156 -10.70488118 21.15633657 -10.69702148 18.32177734 C-10.71702209 17.4934137 -10.73702271 16.66505005 -10.75762939 15.81158447 C-10.67862558 9.43620259 -8.43549534 5.54502808 -4 1 C-2 0 -2 0 0 0 Z " fill="#BC647B" transform="translate(112,157)"/>
<path d="M0 0 C0.76936386 -0.00189835 1.53872772 -0.00379669 2.33140564 -0.00575256 C4.87517475 -0.0094583 7.4186586 0.00123929 9.96240234 0.01245117 C11.7269182 0.013643 13.49143469 0.01409613 15.25595093 0.01383972 C18.95306369 0.01540414 22.65007957 0.02369191 26.34716797 0.03710938 C31.09669915 0.05412402 35.84612406 0.05792299 40.59568214 0.05716419 C44.23809838 0.05743547 47.88049117 0.06290953 51.52289963 0.07016563 C53.27487384 0.07335716 55.02685071 0.07532083 56.77882767 0.07605934 C59.22108789 0.0782164 61.66323306 0.08694603 64.10546875 0.09765625 C64.83586868 0.09720306 65.56626862 0.09674988 66.31880188 0.09628296 C71.30886351 0.12844359 71.30886351 0.12844359 72.42333984 1.24291992 C72.52246824 2.73377357 72.55413731 4.22924444 72.55615234 5.72338867 C72.55744141 6.64055664 72.55873047 7.55772461 72.56005859 8.50268555 C72.55619141 9.46883789 72.55232422 10.43499023 72.54833984 11.43041992 C72.55220703 12.37723633 72.55607422 13.32405273 72.56005859 14.29956055 C72.55341554 19.05930746 72.41428152 23.56347314 71.42333984 28.24291992 C71.09333984 28.24291992 70.76333984 28.24291992 70.42333984 28.24291992 C70.42333984 19.66291992 70.42333984 11.08291992 70.42333984 2.24291992 C43.69333984 2.24291992 16.96333984 2.24291992 -10.57666016 2.24291992 C-6.92237092 -0.1932729 -4.2223251 -0.03266653 0 0 Z " fill="#BD748A" transform="translate(248.57666015625,28.757080078125)"/>
<path d="M0 0 C-0.61277612 2.96175123 -1.25372522 4.38058783 -3 7 C-3.66 7 -4.32 7 -5 7 C-5.33 37.03 -5.66 67.06 -6 98 C-6.99 98.495 -6.99 98.495 -8 99 C-8.13929422 87.42104962 -8.24577042 75.84230003 -8.31087303 64.26268101 C-8.34212634 58.88518649 -8.38448976 53.50826709 -8.45263672 48.13110352 C-8.51804289 42.93743714 -8.55375114 37.74432239 -8.56926346 32.5502758 C-8.58031168 30.57316344 -8.60188665 28.59607977 -8.63438034 26.61920357 C-8.92911444 7.93739325 -8.92911444 7.93739325 -3.48721313 1.24571228 C-2 0 -2 0 0 0 Z " fill="#BE667E" transform="translate(235,33)"/>
<path d="M0 0 C3.70764304 5.56146456 4.34305139 10.87843422 4.625 17.375 C4.66367187 18.11105469 4.70234375 18.84710938 4.7421875 19.60546875 C4.83557998 21.40327406 4.9188371 23.20160108 5 25 C5.99 24.67 6.98 24.34 8 24 C5.3547128 40.33264445 5.3547128 40.33264445 2.08984375 46.80078125 C0.77577985 49.45245859 -0.24557457 52.17748635 -1.3125 54.9375 C-3.76480869 60.90733896 -7.08218656 65.89668106 -11 71 C-12 68 -12 68 -10.453125 64.48828125 C-9.72861162 63.09119571 -8.99377099 61.69942911 -8.25 60.3125 C-1.35691941 47.27719224 2.25743551 34.8697254 2.3125 20.0625 C2.32059692 18.71248901 2.32059692 18.71248901 2.32885742 17.33520508 C2.27639261 12.45324058 1.72687434 8.61646487 0 4 C0 2.68 0 1.36 0 0 Z " fill="#A2C3E1" transform="translate(359,170)"/>
<path d="M0 0 C1.37286689 4.11860068 0.05344106 5.58763097 -1.8125 9.4375 C-2.35519531 10.57058594 -2.89789063 11.70367187 -3.45703125 12.87109375 C-4.28220792 14.54442669 -5.11510401 16.21464656 -5.99682617 17.85888672 C-10.11701378 26.65276487 -10.54647636 36.26651849 -10.5 45.8125 C-10.50008057 47.03702881 -10.50016113 48.26155762 -10.50024414 49.52319336 C-10.36662962 57.87992242 -9.29398119 64.75083502 -5.99609375 72.41015625 C-5 75 -5 75 -6 78 C-14.68058049 61.46556096 -15.71329883 40.89164076 -10.39697266 22.96679688 C-7.81919871 14.74273109 -5.09019933 7.03645202 0 0 Z " fill="#A3DBD8" transform="translate(219,310)"/>
<path d="M0 0 C0.66 0 1.32 0 2 0 C3.92530833 2.8879625 4.63358452 4.81943661 5.5 8.125 C5.7371875 9.01445313 5.974375 9.90390625 6.21875 10.8203125 C6.4765625 11.86960937 6.734375 12.91890625 7 14 C7.17499023 14.66813721 7.34998047 15.33627441 7.53027344 16.0246582 C8.93490449 21.72017423 9.31414267 27.0830749 9.25 32.9375 C9.24468262 33.81124268 9.23936523 34.68498535 9.23388672 35.58520508 C9.14507949 41.61229312 8.71510385 47.18770362 7 53 C6.01 53.495 6.01 53.495 5 54 C5.07001221 53.40574219 5.14002441 52.81148437 5.2121582 52.19921875 C5.91747526 45.78339038 6.18298178 39.45201799 6.1875 33 C6.19974609 32.07960937 6.21199219 31.15921875 6.22460938 30.2109375 C6.24301892 21.49708606 4.74571927 13.60439525 1.875 5.375 C1.52179688 4.35148437 1.16859375 3.32796875 0.8046875 2.2734375 C0.53914063 1.52320313 0.27359375 0.77296875 0 0 Z " fill="#C6B9C9" transform="translate(355,36)"/>
<path d="M0 0 C0.33 0.66 0.66 1.32 1 2 C0.53335938 3.15628906 0.06671875 4.31257812 -0.4140625 5.50390625 C-2.33462101 10.35786056 -2.44589392 14.76618211 -2.375 19.9375 C-2.38660156 20.77990234 -2.39820313 21.62230469 -2.41015625 22.49023438 C-2.38248889 28.48021875 -1.21226235 33.44414753 1 39 C-2.93673644 37.68775452 -5.22719294 36.08089673 -8 33 C-7.67 32.34 -7.34 31.68 -7 31 C-5.68 31.99 -4.36 32.98 -3 34 C-3.495 32.515 -3.495 32.515 -4 31 C-4.03954234 28.66700175 -4.04401732 26.33291811 -4 24 C-4.66 24 -5.32 24 -6 24 C-7.01148716 14.65310935 -4.37174234 8.18400574 0 0 Z " fill="#BF7C91" transform="translate(228,244)"/>
<path d="M0 0 C0.66 0.33 1.32 0.66 2 1 C-0.61960786 6.12965037 -4.51379369 9.80975819 -8.5625 13.8125 C-9.24763672 14.50537109 -9.93277344 15.19824219 -10.63867188 15.91210938 C-11.29544922 16.56630859 -11.95222656 17.22050781 -12.62890625 17.89453125 C-13.22775635 18.49112549 -13.82660645 19.08771973 -14.44360352 19.70239258 C-16 21 -16 21 -18 21 C-18.66 22.32 -19.32 23.64 -20 25 C-20.66 24.01 -21.32 23.02 -22 22 C-14.66666667 14.66666667 -7.33333333 7.33333333 0 0 Z " fill="#C3B9C9" transform="translate(267,198)"/>
<path d="M0 0 C2.475 0.495 2.475 0.495 5 1 C5.33 1.99 5.66 2.98 6 4 C3.525 3.01 3.525 3.01 1 2 C1.28439941 2.64469238 1.56879883 3.28938477 1.86181641 3.95361328 C4.90372284 11.43513085 5.55735833 17.85123343 5.375 25.875 C5.37371094 26.97585937 5.37242187 28.07671875 5.37109375 29.2109375 C5.31506576 34.34061154 5.14959114 38.27518796 3 43 C2.67 43 2.34 43 2 43 C1.875 37.25 1.875 37.25 3 35 C3.09909819 32.42636176 3.13892151 29.88565909 3.125 27.3125 C3.12886719 26.61705078 3.13273437 25.92160156 3.13671875 25.20507812 C3.12628098 19.61565112 2.78406737 14.25995889 0.9375 8.9375 C-0.064185 5.798887 -0.15585675 3.27299168 0 0 Z " fill="#C3ADBF" transform="translate(329,10)"/>
<path d="M0 0 C0.66 0 1.32 0 2 0 C0.33560611 3.73364035 -1.98126133 6.80768126 -4.4375 10.0625 C-5.21996094 11.10535156 -6.00242187 12.14820313 -6.80859375 13.22265625 C-10.01871231 17.29109528 -12.07451207 19.26942316 -17 21 C-15.30935414 16.71563036 -12.18644695 13.77624401 -9.0625 10.5 C-7.98914493 9.36622854 -6.91748211 8.23085221 -5.84765625 7.09375 C-5.34766113 6.56265625 -4.84766602 6.0315625 -4.33251953 5.484375 C-2.86430935 3.89936452 -2.86430935 3.89936452 -1.24609375 1.59375 C-0.83488281 1.0678125 -0.42367188 0.541875 0 0 Z " fill="#A0C1E1" transform="translate(271,321)"/>
<path d="M0 0 C0 4.06354909 -1.52984762 5.05170581 -4.25 8 C-5.03890625 8.86625 -5.8278125 9.7325 -6.640625 10.625 C-11.12028058 15.13432217 -16.29206149 18.25173331 -22 21 C-20.38405168 18.95880212 -18.7143618 16.95927063 -17 15 C-16.34 15 -15.68 15 -15 15 C-15 14.34 -15 13.68 -15 13 C-13.49609375 11.484375 -13.49609375 11.484375 -11.4375 9.75 C-10.71433594 9.13511719 -9.99117188 8.52023438 -9.24609375 7.88671875 C-8.50488281 7.26410156 -7.76367188 6.64148438 -7 6 C-5.66572325 4.85526537 -4.33230167 3.70953272 -3 2.5625 C-2.01 1.716875 -1.02 0.87125 0 0 Z " fill="#C3ADBE" transform="translate(307,163)"/>
<path d="M0 0 C1 2 1 2 0.0625 5.125 C-0.288125 6.07375 -0.63875 7.0225 -1 8 C-1.66 8 -2.32 8 -3 8 C-3.13277344 8.61488281 -3.26554688 9.22976562 -3.40234375 9.86328125 C-3.57894531 10.67152344 -3.75554687 11.47976562 -3.9375 12.3125 C-4.11152344 13.11300781 -4.28554687 13.91351563 -4.46484375 14.73828125 C-5 17 -5 17 -6 20 C-6.08143855 21.62719482 -6.1075302 23.25751719 -6.09765625 24.88671875 C-6.09443359 25.82451172 -6.09121094 26.76230469 -6.08789062 27.72851562 C-6.07532227 29.19321289 -6.07532227 29.19321289 -6.0625 30.6875 C-6.05798828 31.67556641 -6.05347656 32.66363281 -6.04882812 33.68164062 C-6.03704303 36.12115474 -6.02059011 38.56054689 -6 41 C-10.12192856 34.81710716 -8.718955 25.19366614 -8 18 C-6.67649764 11.41829724 -4.27443575 5.21456091 0 0 Z " fill="#C5BDCD" transform="translate(233,236)"/>
<path d="M0 0 C1.65 0.33 3.3 0.66 5 1 C0.68339698 7.00073223 -4.02033308 12.54006063 -9 18 C-9.33 17.01 -9.66 16.02 -10 15 C-8.92578125 13.45703125 -8.92578125 13.45703125 -7.3125 11.8125 C-3.96328226 8.15880792 -2.05196092 4.49852971 0 0 Z " fill="#CBB3C5" transform="translate(310,82)"/>
<path d="M0 0 C0.33 0 0.66 0 1 0 C1.06058594 1.18335938 1.12117187 2.36671875 1.18359375 3.5859375 C1.61253139 11.7486984 2.0825965 19.87442613 3 28 C1.5 26.625 1.5 26.625 0 25 C0 24.34 0 23.68 0 23 C-0.66 23 -1.32 23 -2 23 C-2.33 21.68 -2.66 20.36 -3 19 C-2.01 19.33 -1.02 19.66 0 20 C0 13.4 0 6.8 0 0 Z " fill="#5F8BBB" transform="translate(234,381)"/>
<path d="M0 0 C0.99 0.33 1.98 0.66 3 1 C0.65604718 7.60568521 -2.59868851 14.3988828 -8 19 C-7.38188466 14.44684052 -5.53234107 10.71540233 -3.4375 6.6875 C-2.9434668 5.71973633 -2.9434668 5.71973633 -2.43945312 4.73242188 C-1.63175745 3.15214772 -0.81662387 1.57567895 0 0 Z " fill="#749BD1" transform="translate(355,222)"/>
<path d="M0 0 C0.33 0.66 0.66 1.32 1 2 C-0.02943459 4.54556461 -1.11405567 6.9733872 -2.3125 9.4375 C-2.63412109 10.11876953 -2.95574219 10.80003906 -3.28710938 11.50195312 C-4.70779167 14.48042667 -6.16688762 17.25033142 -8 20 C-8.66 19.67 -9.32 19.34 -10 19 C-8.65610276 14.49558061 -6.84328221 10.7205754 -4.4375 6.6875 C-3.50744141 5.11548828 -3.50744141 5.11548828 -2.55859375 3.51171875 C-1 1 -1 1 0 0 Z " fill="#D193A9" transform="translate(219,188)"/>
<path d="M0 0 C0.66 0 1.32 0 2 0 C2.66 1.32 3.32 2.64 4 4 C4.66 3.34 5.32 2.68 6 2 C6.33 4.31 6.66 6.62 7 9 C5.35 8.67 3.7 8.34 2 8 C2 7.34 2 6.68 2 6 C1.34 6 0.68 6 0 6 C0 4.02 0 2.04 0 0 Z " fill="#8CCAD1" transform="translate(232,404)"/>
<path d="M0 0 C0.33 0.99 0.66 1.98 1 3 C-0.57382947 4.65492374 -2.15942902 6.29866024 -3.75 7.9375 C-4.63171875 8.85402344 -5.5134375 9.77054687 -6.421875 10.71484375 C-8.80176695 12.82429343 -9.9099375 13.66067071 -13 14 C-8.88380164 9.08064098 -4.59589638 4.47352044 0 0 Z " fill="#5185B8" transform="translate(282,275)"/>
<path d="M0 0 C0.66 0.33 1.32 0.66 2 1 C0.77937479 2.44475986 -0.45192126 3.88050764 -1.6875 5.3125 C-2.37199219 6.11300781 -3.05648438 6.91351563 -3.76171875 7.73828125 C-6.04585324 10.04633337 -8.10034695 11.55251568 -11 13 C-11.99 13 -12.98 13 -14 13 C-13.0479279 11.99403703 -12.08812654 10.99538437 -11.125 10 C-10.32449219 9.1646875 -10.32449219 9.1646875 -9.5078125 8.3125 C-8 7 -8 7 -6 7 C-6 6.34 -6 5.68 -6 5 C-4.04072937 3.2856382 -2.04119788 1.61594832 0 0 Z " fill="#C3A7B9" transform="translate(283,184)"/>
<path d="M0 0 C0.33 0.66 0.66 1.32 1 2 C-0.375 4 -0.375 4 -2 6 C-2.66 6 -3.32 6 -4 6 C-4.2475 6.5775 -4.495 7.155 -4.75 7.75 C-6.16683317 10.3002997 -7.87627537 12.01785701 -10 14 C-10.66 13.67 -11.32 13.34 -12 13 C-10.56354149 11.39490066 -9.12579294 9.79095576 -7.6875 8.1875 C-6.88699219 7.29417969 -6.08648437 6.40085938 -5.26171875 5.48046875 C-3.54775419 3.60073214 -1.82122396 1.77407253 0 0 Z " fill="#5388B8" transform="translate(320,237)"/>
<path d="M0 0 C0.33 0.99 0.66 1.98 1 3 C-0.546875 5.4453125 -0.546875 5.4453125 -2.75 8.125 C-3.46671875 9.01445312 -4.1834375 9.90390625 -4.921875 10.8203125 C-7 13 -7 13 -10 14 C-8.43632643 10.47761953 -6.30504111 7.72876006 -3.875 4.75 C-3.15054688 3.85796875 -2.42609375 2.9659375 -1.6796875 2.046875 C-0.84824219 1.03367187 -0.84824219 1.03367187 0 0 Z " fill="#5388B8" transform="translate(251,307)"/>
<path d="M0 0 C3.93673644 1.31224548 6.22719294 2.91910327 9 6 C7.35 6 5.7 6 4 6 C4 7.65 4 9.3 4 11 C1.55160412 7.32740617 0 4.45351799 0 0 Z " fill="#BB637A" transform="translate(330,12)"/>
<path d="M0 0 C0 3.61020905 -1.17536954 4.85567666 -3.5 7.50390625 C-6.65971141 10.65538924 -9.47373566 13 -14 13 C-9.38 8.71 -4.76 4.42 0 0 Z " fill="#5489B9" transform="translate(303,255)"/>
<path d="M0 0 C0.33 1.32 0.66 2.64 1 4 C-1.64 6.31 -4.28 8.62 -7 11 C-7.66 10.67 -8.32 10.34 -9 10 C-6.03 6.7 -3.06 3.4 0 0 Z " fill="#C3A3B6" transform="translate(333,136)"/>
<path d="M0 0 C3.89590628 3.89590628 5.36176834 9.83326939 7 15 C6.34 15 5.68 15 5 15 C3 12 3 12 3 9 C2.34 9 1.68 9 1 9 C0.67 6.03 0.34 3.06 0 0 Z " fill="#C5ACBD" transform="translate(210,256)"/>
<path d="M0 0 C4.52615993 3.67832017 8.39424999 7.41086363 12 12 C9.50638429 10.79618552 7.31856917 9.54571278 5 8 C5 7.34 5 6.68 5 6 C4.01 5.67 3.02 5.34 2 5 C0.8125 2.4375 0.8125 2.4375 0 0 Z " fill="#A5DBD9" transform="translate(220,398)"/>
<path d="M0 0 C0 3.77910478 -0.99703962 4.46106101 -3.5 7.1875 C-4.1496875 7.90292969 -4.799375 8.61835938 -5.46875 9.35546875 C-5.9740625 9.89816406 -6.479375 10.44085938 -7 11 C-7.99 10.67 -8.98 10.34 -10 10 C-6.7 6.7 -3.4 3.4 0 0 Z " fill="#5186B8" transform="translate(268,289)"/>
<path d="M0 0 C0.33 0 0.66 0 1 0 C0.8864371 1.64666203 0.75882619 3.29236082 0.625 4.9375 C0.55539063 5.85402344 0.48578125 6.77054688 0.4140625 7.71484375 C0.27742187 8.46894531 0.14078125 9.22304687 0 10 C-0.99 10.495 -0.99 10.495 -2 11 C-3.25 9.4375 -3.25 9.4375 -4 7 C-2.93237266 4.42998985 -1.53455057 2.3469597 0 0 Z " fill="#CCABBE" transform="translate(210,206)"/>
<path d="M0 0 C0.33 0.66 0.66 1.32 1 2 C-1.21072648 6.95834368 -3.98128743 10.7057314 -9 13 C-7.46775962 9.55245914 -5.39420499 6.90206666 -3 4 C-1.99426222 2.67098936 -0.99204592 1.33926199 0 0 Z " fill="#C5ABBE" transform="translate(345,121)"/>
<path d="M0 0 C-1.44077046 3.36179774 -3.24750021 5.59156268 -6 8 C-6.66 8 -7.32 8 -8 8 C-6.65580512 3.85539913 -4.87800266 0 0 0 Z " fill="#BF6F86" transform="translate(112,157)"/>
<path d="M0 0 C0.66 0 1.32 0 2 0 C1.38722388 2.96175123 0.74627478 4.38058783 -1 7 C-1.66 7 -2.32 7 -3 7 C-3.33 8.32 -3.66 9.64 -4 11 C-4.64453125 9.234375 -4.64453125 9.234375 -5 7 C-4.07421875 5.078125 -4.07421875 5.078125 -2.6875 3.25 C-2.23761719 2.63640625 -1.78773438 2.0228125 -1.32421875 1.390625 C-0.88722656 0.93171875 -0.45023438 0.4728125 0 0 Z " fill="#BF667D" transform="translate(233,33)"/>
<path d="M0 0 C0.33 0.66 0.66 1.32 1 2 C-0.21484375 4.8203125 -0.21484375 4.8203125 -1.9375 8.125 C-2.50339844 9.22070312 -3.06929688 10.31640625 -3.65234375 11.4453125 C-4.09707031 12.28835937 -4.54179687 13.13140625 -5 14 C-6.125 10.25 -6.125 10.25 -5 8 C-4.34 8 -3.68 8 -3 8 C-2.87625 7.236875 -2.7525 6.47375 -2.625 5.6875 C-2 3 -2 3 0 0 Z " fill="#BE6D84" transform="translate(357,96)"/>
<path d="M0 0 C0.66 0 1.32 0 2 0 C0.44499019 3.81684226 -2.03595495 6.19195732 -5 9 C-5 4.68381834 -2.86729652 3.07210341 0 0 Z " fill="#779FD4" transform="translate(271,321)"/>
<path d="M0 0 C0.99 0.33 1.98 0.66 3 1 C0.03 3.475 0.03 3.475 -3 6 C-2.42655063 3.13275314 -2.1385485 2.1385485 0 0 Z " fill="#4978B5" transform="translate(307,251)"/>
<path d="M0 0 C0.99 0.33 1.98 0.66 3 1 C1.75023244 4.65316671 1.32901247 5.78065836 -2 8 C-1.125 2.25 -1.125 2.25 0 0 Z " fill="#87ADD9" transform="translate(355,222)"/>
<path d="M0 0 C0 0.99 0 1.98 0 3 C-5.34883721 8 -5.34883721 8 -8 8 C-6.6106395 4.52659875 -5.38754843 3.48205244 -2 2 C-1.34 1.34 -0.68 0.68 0 0 Z " fill="#C76981" transform="translate(305,95)"/>
<path d="M0 0 C0.6875 1.8125 0.6875 1.8125 1 4 C-0.4375 5.75 -0.4375 5.75 -2 7 C-2.99 6.67 -3.98 6.34 -5 6 C-3.35 4.02 -1.7 2.04 0 0 Z " fill="#BF657C" transform="translate(318,79)"/>
<path d="M0 0 C1.32 0.99 2.64 1.98 4 3 C1.525 4.485 1.525 4.485 -1 6 C-1.33 5.01 -1.66 4.02 -2 3 C-1.34 2.01 -0.68 1.02 0 0 Z " fill="#C4C5D4" transform="translate(313,78)"/>
<path d="M0 0 C-1.07401108 2.91517292 -1.77810176 4.77810176 -4 7 C-4 6.34 -4 5.68 -4 5 C-4.66 4.67 -5.32 4.34 -6 4 C-2.25 0 -2.25 0 0 0 Z " fill="#92B5DE" transform="translate(266,329)"/>
<path d="M0 0 C0.6875 1.75 0.6875 1.75 1 4 C-0.3125 6.25 -0.3125 6.25 -2 8 C-2.66 8 -3.32 8 -4 8 C-2.87548273 5.0280615 -1.77706209 2.66559313 0 0 Z " fill="#C5AABC" transform="translate(238,228)"/>
<path d="M0 0 C0.33 0.66 0.66 1.32 1 2 C-0.98 4.97 -0.98 4.97 -3 8 C-3.99 7.67 -4.98 7.34 -6 7 C-4.02 4.69 -2.04 2.38 0 0 Z " fill="#5489B9" transform="translate(327,228)"/>
<path d="M0 0 C0.66 0 1.32 0 2 0 C0.125 5.75 0.125 5.75 -1 8 C-1.99 7.67 -2.98 7.34 -4 7 C-2.68 4.69 -1.36 2.38 0 0 Z " fill="#CA5972" transform="translate(298,97)"/>
<path d="M0 0 C0.66 0.99 1.32 1.98 2 3 C-0.97 5.475 -0.97 5.475 -4 8 C-3.40072174 4.64404172 -2.15377564 2.62198774 0 0 Z " fill="#D291A7" transform="translate(304,92)"/>
<path d="M0 0 C0.33 0 0.66 0 1 0 C0.25 7.75 0.25 7.75 -2 10 C-2.17942163 6.05272412 -2.09350689 3.4019487 0 0 Z " fill="#C6A5B8" transform="translate(333,43)"/>
</svg>
